PathFileType	4	(X/Y/Z)	Patient4_TMGait_0pt4_02_left_37.trc.trc
DataRate	CameraRate	NumFrames	NumMarkers	Units	OrigDataRate	OrigDataStartFrame	OrigNumFrames
75.268817204301	75.268817204301	6	33	mm	75.268817204301	1	       141
Frame#	Time	Sacral			L.Shoulder			Chest			R.Shoulder			Neck			R.ASIS			L.ASIS			R.Thigh.Superior			R.Thigh.Lateral			R.Thigh.Inferior			R.Patella			L.Thigh.Superior			L.Thigh.Lateral			L.Thigh.Inferior			L.Patella			L.Shank.Superior			L.Shank.Lateral			L.Shank.Inferior			R.Shank.Superior			R.Shank.Lateral			R.Shank.Inferior			R.Heel			R.Midfoot.Superior			R.Midfoot.Lateral			R.Toe			L.Heel			L.Midfoot.Lateral			L.Midfoot.Superior			L.Toe			L.Elbow			L.Wrist			R.Elbow			R.Wrist			
		X1	Y1	Z1	X2	Y2	Z2	X3	Y3	Z3	X4	Y4	Z4	X5	Y5	Z5	X6	Y6	Z6	X7	Y7	Z7	X8	Y8	Z8	X9	Y9	Z9	X10	Y10	Z10	X11	Y11	Z11	X12	Y12	Z12	X13	Y13	Z13	X14	Y14	Z14	X15	Y15	Z15	X16	Y16	Z16	X17	Y17	Z17	X18	Y18	Z18	X19	Y19	Z19	X20	Y20	Z20	X21	Y21	Z21	X22	Y22	Z22	X23	Y23	Z23	X24	Y24	Z24	X25	Y25	Z25	X26	Y26	Z26	X27	Y27	Z27	X28	Y28	Z28	X29	Y29	Z29	X30	Y30	Z30	X31	Y31	Z31	X32	Y32	Z32	X33	Y33	Z33	

1	49.450000000000	830.370796294257	1004.135582352810	513.175574968458	981.567228776128	1439.212440095280	324.511691232154	1100.811761329971	1372.960829772687	474.822191625158	1030.924307743403	1438.127354626190	657.980139055650	974.834861484331	1498.312069357958	483.427583705099	1068.744451124604	945.675411758906	611.219014413196	1031.838249112099	967.260183166694	339.930469210175	1099.751892541595	740.373253072700	581.294487957286	1016.371646784489	633.176640076713	645.088326786516	1087.228774685439	578.825330002343	561.831719797338	1082.872055541961	492.263135964450	566.908515124580	1116.603418229318	779.704351869641	357.891097710125	1063.792000931776	653.658943802868	279.900308446854	1172.550223938846	591.787566404477	328.817516481179	1186.439072435040	505.757344510628	320.292241312612	1127.031660768138	435.119543845813	313.955467473047	989.644168669516	375.961689171404	270.766035895685	998.312466606745	243.587734881354	320.579671225319	1054.158218482152	403.680671337230	574.998118139423	982.964678727329	300.917363511986	638.067984486769	1020.282362163472	205.704714625447	572.118366109790	884.889667549193	42.129795375882	543.110710636739	1054.609475849132	96.095617027308	578.311929805277	967.664673154655	36.948600523178	618.015705543903	1175.881097209819	44.868627647812	606.317435542062	822.007326964969	147.592143210921	365.768869820571	880.573579668444	117.801658691128	278.845070810436	984.881427992912	142.076740091005	295.662978501303	1077.929833786335	47.052207728125	253.186927085778	940.641501852857	1086.687572166753	210.737951616293	1008.430695278472	833.579063233105	194.025832256471	1092.068001008442	1098.154420595614	789.792811742997	1312.712193294665	967.036044142336	750.517964071496	
2	49.463285714286	829.983461614157	1004.528300438294	515.467733842864	979.665308468899	1439.320481343243	325.858791698332	1100.650639803024	1372.906428595678	474.666633849716	1033.140511532192	1438.401707070198	658.592771388649	975.276533446811	1498.485778552787	484.592286316388	1069.021202081400	945.294193898666	611.090280494723	1029.912635072132	967.827746967475	340.223084035998	1097.974402015434	739.748624917936	580.449381506364	1014.455572903344	633.051932553119	645.347585226566	1083.943727563726	578.239000726988	561.530538722641	1079.083586250840	491.837786295788	566.831880060171	1115.509908125502	781.443444203134	357.978896970995	1063.768847115067	655.051183064924	280.129143423030	1172.914581446829	594.181480014670	329.455504031751	1188.339040224453	509.414374503725	320.293859047578	1132.197362568566	438.057997352445	313.100339886355	998.514934981910	371.924422714726	270.745475928889	1015.783086708719	240.266681380506	318.396280628435	1049.983215772515	403.312668826038	574.945980342871	978.661627370511	300.775789192197	638.235000199783	1015.279027709277	205.433941308298	572.090954285399	879.141062109485	42.238659561356	543.178463667191	1048.977843721210	96.053982228142	578.341586160433	962.042744719555	36.953652268608	618.105839816786	1170.242025669106	44.682053625820	606.393880815410	847.403401249736	134.038597483873	364.719869318634	905.718577566820	108.654061941355	276.621682268192	1008.067542473399	138.689404206980	292.290756004664	1105.255034518778	50.229767496567	247.302685854697	931.134989991773	1087.611740903394	213.946838766331	987.696421359727	832.764497445152	198.477452837661	1101.663718395709	1100.576051760999	789.871803238335	1327.864261360558	984.492746467044	747.769438096663	
3	49.476571428571	829.595593829827	1004.902124976177	517.708270003124	977.801029263685	1439.418474769120	327.166381737182	1100.500195631887	1372.824282192861	474.479441332028	1035.347186544083	1438.641650251405	659.162406100243	975.729503949080	1498.639633762446	485.714233109898	1069.283719963045	944.911918375311	610.934799890877	1027.999963485196	968.347194730269	340.483746485418	1096.215401150241	739.121414881629	579.611752023968	1012.556889102646	632.916115719091	645.596897558551	1080.682141261691	577.655188230915	561.227009418457	1075.326033960422	491.413732124742	566.752522695686	1114.340018821234	783.067873813296	358.086187547697	1063.693945534018	656.393047098473	280.295818961714	1173.129158522419	596.463332201768	330.162242206672	1190.109005151554	513.005907622277	320.321523342275	1137.238262371236	440.958195030581	312.293479550448	1007.422443347719	367.895400932565	270.624159754647	1033.183681415428	237.100047491771	316.260788314946	1045.831384018656	402.941034220812	574.892632035724	974.388486704298	300.628913005612	638.407576382780	1010.303515967782	205.163202608798	572.066074404343	873.433158413031	42.340835310102	543.248628393299	1043.380908231083	96.011722656374	578.374476186267	956.453034532851	36.955083637483	618.194643131476	1164.638056059281	44.499839926787	606.465225849183	872.791152400968	120.786886102177	363.555788820810	930.919909860980	99.780552728402	274.374585969086	1031.210973988504	135.545025077195	289.022061132910	1132.495210228440	53.686761934204	241.704153025325	921.694882677825	1088.575983095295	217.093411837201	967.292026584990	832.092818258995	202.926380469024	1111.171442542536	1102.964353221131	789.866696379720	1342.680735325668	1001.796914043771	745.010303580720	
4	49.489857142857	829.210112196218	1005.243557741493	519.831522169384	976.020865611104	1439.499464279695	328.383387097014	1100.372460309471	1372.692451987085	474.224690063997	1037.527897724143	1438.820111587689	659.638173057511	976.205049190222	1498.757963109272	486.742711126900	1069.517605887252	944.529665593652	610.725368525516	1026.123528214454	968.782134593498	340.673722231743	1094.488870443437	738.490342003040	578.790376346153	1010.681788963766	632.763098205801	645.822564317031	1077.462276485064	577.077412868319	560.918202305632	1071.620097176506	490.992972802960	566.663886003312	1113.045250556093	784.481240044550	358.217438213382	1063.514213857151	657.624584918411	280.360265967622	1173.080179048937	598.522776955972	330.961487665800	1191.627666083037	516.446659669008	320.403246425709	1142.022101524952	443.771130619059	311.581696368116	1016.336903231978	363.926618573249	270.328395182612	1050.331373543323	234.246763297258	314.227164381045	1041.723327167402	402.567315736270	574.834432872826	970.166733019664	300.476515383637	638.585192075641	1005.381745185207	204.896260621290	572.044245667153	867.804880781220	42.431320143976	543.322551780644	1037.852734354118	95.968329763938	578.410051485820	950.928043391769	36.951886220718	618.281326973770	1159.103408926465	44.326962212805	606.528050420234	897.970277783028	108.200139181122	362.193863437471	956.040558933778	91.478977277954	272.111276432214	1054.114300815679	132.864891166310	285.969896718149	1159.384980405311	57.609894866714	236.688806993436	912.422172346746	1089.616990224070	220.115348927669	947.585932823403	831.692736702048	207.348086661517	1120.470217726172	1105.281573242044	789.684297917856	1356.798687467527	1018.727349083158	742.232058166379	
5	49.503142857143	828.826458222631	1005.544700164415	521.783976484004	974.364650515818	1439.558708827736	329.464281734119	1100.278627998932	1372.493172442460	473.869167066802	1039.673799782945	1438.917156893566	659.974430328369	976.716667856860	1498.829786776182	487.633521066004	1069.709928250441	944.146635694714	610.437055769270	1024.298838764056	969.107133772613	340.758221811027	1092.801595724911	737.852581065452	577.994848342034	1008.825209985573	632.589076561823	646.012132551013	1074.287842436816	576.506096253124	560.601043610886	1067.964307377638	490.574369963326	566.556616269437	1111.586926624336	785.617025039597	358.375502200623	1063.188951533888	658.703611851634	280.290626662648	1172.688527210632	600.280703487677	331.851943604780	1192.804201149820	519.676216430252	320.561823487832	1146.453512003187	446.464671277565	311.008784995272	1025.249465693405	360.076502797727	269.792164363473	1067.077743459794	231.845728538154	312.346080908823	1037.661323476391	402.193374332782	574.766762419734	965.997277172330	300.320315937383	638.765635904373	1000.519127106078	204.636813067425	572.025204017132	862.269200736157	42.507157308282	543.401315626510	1032.403321159952	95.923499963468	578.446202536650	945.476844341078	36.943890868760	618.365442351865	1153.647747295964	44.166619152491	606.580777067380	922.756412016287	96.592698882939	360.556006120616	980.973890178566	83.999639326960	269.845268357465	1076.621735550745	130.830200238465	283.245141241510	1185.725563740429	62.139588384784	232.558793396543	903.383951945184	1090.768884078776	222.971660970959	928.840510050068	831.663289017846	211.726336720284	1129.476356218539	1107.500391661321	789.240686040480	1369.947326837016	1035.119216486408	739.420101578318	
6	49.516428571429	828.441684834922	1005.804016267889	523.524910248732	972.864257232083	1439.594172155562	330.371153840934	1100.227880077682	1372.215776226978	473.386155253093	1041.779750138374	1438.922445344167	660.134567177659	977.277616925782	1498.850110252449	488.351007823065	1069.850642869420	943.760962156393	610.049697628284	1022.536546116307	969.310837111090	340.709379454065	1091.154127991549	737.204997504440	577.235206563214	1006.972982426500	632.393450066711	646.154508119593	1071.152205834492	575.939493914818	560.273113479839	1064.340634221353	490.154751344198	566.419848266011	1109.946461199908	786.444534679687	358.558602012863	1062.694300877926	659.606109032512	280.069546441961	1171.921807165180	601.693287321557	332.802815065979	1193.585650584416	522.656396869981	320.812243240401	1150.474324711281	449.019879347682	310.610330781965	1034.148351050450	356.410922727667	268.970247955829	1083.286196568517	230.001131482327	310.661982265075	1033.635160193951	401.821904838763	574.684337967279	961.866192641973	300.164387639326	638.944321312450	995.707183966372	204.388591782087	572.008065174441	856.820723409751	42.567641583046	543.485323761158	1027.026078191670	95.877029985152	578.479184133950	940.092644479895	36.931685925986	618.446472963425	1148.264020492514	44.020393980895	606.623570173173	946.943753482320	86.215094492297	358.586846843333	1005.593414455092	77.527373018506	267.601842874785	1098.583286096962	129.558922552759	280.946733103288	1211.343449045759	67.333968395328	229.586351786985	894.624807904707	1092.056944822978	225.641742647800	911.218872217334	832.062120796168	216.045336367780	1138.134113064170	1109.602779946895	788.470459414726	1381.952594346087	1050.849257305400	736.559685807484	
